HIERARCHY
ROOT joint_0
{
	OFFSET 0.000000 0.000000 0.000000
	CHANNELS 6 Xposition Yposition Zposition Zrotation Yrotation Xrotation 
	JOINT joint_1
	{
		OFFSET 7.566162 2.250183 114.799927
		CHANNELS 3 Zrotation Yrotation Xrotation
		JOINT joint_2
		{
			OFFSET -5.201660 -0.414001 104.936035
			CHANNELS 3 Zrotation Yrotation Xrotation
			JOINT joint_3
			{
				OFFSET -6.923584 -0.419739 104.718018
				CHANNELS 3 Zrotation Yrotation Xrotation
				JOINT joint_4
				{
					OFFSET 3.108887 2.881104 149.449951
					CHANNELS 3 Zrotation Yrotation Xrotation
					JOINT joint_5
					{
						OFFSET 19.988770 5.920349 90.786987
						CHANNELS 3 Zrotation Yrotation Xrotation
						End Site
						{
							OFFSET 0.000000 0.000000 0.000000
						}
					}
				}
				JOINT joint_6
				{
					OFFSET 9.283936 -30.015930 84.410034
					CHANNELS 3 Zrotation Yrotation Xrotation
					JOINT joint_7
					{
						OFFSET 47.243164 -155.716736 -23.241089
						CHANNELS 3 Zrotation Yrotation Xrotation
						JOINT joint_8
						{
							OFFSET 31.323730 -15.356873 -268.798950
							CHANNELS 3 Zrotation Yrotation Xrotation
							JOINT joint_9
							{
								OFFSET 28.122314 -2.114624 -262.450012
								CHANNELS 3 Zrotation Yrotation Xrotation
								End Site
								{
									OFFSET 0.000000 0.000000 0.000000
								}
							}
						}
					}
				}
				JOINT joint_10
				{
					OFFSET -5.580566 33.311218 83.498047
					CHANNELS 3 Zrotation Yrotation Xrotation
					JOINT joint_11
					{
						OFFSET -22.773438 160.515381 -27.138062
						CHANNELS 3 Zrotation Yrotation Xrotation
						JOINT joint_12
						{
							OFFSET 27.004395 30.848877 -267.937988
							CHANNELS 3 Zrotation Yrotation Xrotation
							JOINT joint_13
							{
								OFFSET 32.625000 14.824585 -261.518005
								CHANNELS 3 Zrotation Yrotation Xrotation
								End Site
								{
									OFFSET 0.000000 0.000000 0.000000
								}
							}
						}
					}
				}
			}
		}
	}
	JOINT joint_14
	{
		OFFSET 20.623535 -83.447632 -106.174011
		CHANNELS 3 Zrotation Yrotation Xrotation
		JOINT joint_15
		{
			OFFSET 0.661865 -23.563843 -459.915039
			CHANNELS 3 Zrotation Yrotation Xrotation
			JOINT joint_16
			{
				OFFSET -23.461670 -28.727966 -444.760971
				CHANNELS 3 Zrotation Yrotation Xrotation
				JOINT joint_17
				{
					OFFSET 178.992920 54.047363 -80.113001
					CHANNELS 3 Zrotation Yrotation Xrotation
					End Site
					{
						OFFSET 0.000000 0.000000 0.000000
					}
				}
			}
		}
	}
	JOINT joint_18
	{
		OFFSET -19.571533 84.686279 -105.380005
		CHANNELS 3 Zrotation Yrotation Xrotation
		JOINT joint_19
		{
			OFFSET -22.949951 3.639404 -459.933044
			CHANNELS 3 Zrotation Yrotation Xrotation
			JOINT joint_20
			{
				OFFSET -33.690674 4.092651 -445.010971
				CHANNELS 3 Zrotation Yrotation Xrotation
				JOINT joint_21
				{
					OFFSET 187.419678 18.953857 -76.759001
					CHANNELS 3 Zrotation Yrotation Xrotation
					End Site
					{
						OFFSET 0.000000 0.000000 0.000000
					}
				}
			}
		}
	}
}
MOTION
Frames: 6
Frame Time: 0.016667
-3234.577881 987.331299 1110.193970 -16.391350 0.154110 -0.393689 1.088749 1.286130 1.523608 0.981101 -0.165645 -0.272470 1.008672 0.210322 0.131800 0.046413 0.431633 -0.330270 0.000000 0.000000 0.000000 1.789133 3.636299 -0.395754 -0.219383 3.431653 -1.998722 0.495746 -3.484430 3.016705 0.000000 0.000000 0.000000 -0.089106 -0.340041 -5.382675 0.507257 1.045146 3.593705 0.004159 -0.907915 0.576409 0.000000 0.000000 0.000000 0.025399 1.503553 -1.572224 0.089865 -0.578997 0.319017 0.211303 -3.146642 1.043488 0.000000 0.000000 0.000000 1.323270 0.110868 2.862634 1.402330 1.195098 0.710021 1.371074 -1.100795 0.673395 0.000000 0.000000 0.000000 
-3232.477539 987.111450 1110.461060 -16.082485 0.460374 -0.491900 1.305637 2.029699 1.436532 1.185700 -0.190767 -0.233044 1.208486 0.283789 0.092664 0.082543 -0.852405 -0.120293 0.000000 0.000000 0.000000 2.268287 4.373215 -0.658410 -0.203340 4.258084 -2.165775 0.691984 -5.498998 3.981042 0.000000 0.000000 0.000000 -0.317577 -0.423930 -5.663455 0.599082 1.122647 3.915894 -0.103897 -1.912056 0.205403 0.000000 0.000000 0.000000 -0.088006 1.392454 -1.513473 -0.020169 -0.690882 0.374712 0.101925 -3.229992 1.019928 0.000000 0.000000 0.000000 1.237671 -0.102045 2.984406 1.321358 1.119335 0.669412 1.291136 -1.157140 0.646341 0.000000 0.000000 0.000000 
-3228.272217 986.600525 1110.167969 -15.547572 1.914963 -0.788757 1.339069 1.869741 1.218330 1.222004 -0.224375 -0.188978 1.239440 0.370912 0.057751 0.082752 -3.252430 0.662315 0.000000 0.000000 0.000000 2.811069 5.089072 -1.296424 -0.122968 5.225946 -2.170285 0.927683 -7.047818 5.534103 0.000000 0.000000 0.000000 -0.114336 0.121065 -4.916883 0.662044 1.423295 3.014113 -0.235812 -3.634167 -0.180053 0.000000 0.000000 0.000000 -0.270910 0.229714 -1.216657 -0.224132 -0.927575 0.397781 -0.113392 -3.274860 0.937601 0.000000 0.000000 0.000000 1.081128 -1.442099 3.348228 1.179658 0.929113 0.541314 1.150169 -1.140301 0.587002 0.000000 0.000000 0.000000 
-3222.468018 985.912720 1109.557983 -14.867438 4.008673 -1.177664 1.265202 1.259955 0.936854 1.168039 -0.208011 -0.158528 1.181305 0.369727 0.033521 0.094757 -6.266514 1.741803 0.000000 0.000000 0.000000 3.339480 5.865208 -2.112575 0.005723 6.314854 -2.134785 1.183026 -8.436858 7.492959 0.000000 0.000000 0.000000 0.414413 1.044424 -3.727356 0.768817 1.908489 1.637426 -0.382291 -5.831104 -0.751769 0.000000 0.000000 0.000000 -0.505791 -1.471848 -0.800956 -0.497709 -1.263201 0.413983 -0.408078 -3.287405 0.810658 0.000000 0.000000 0.000000 0.893007 -3.363591 3.842192 1.008180 0.629932 0.362524 0.978873 -1.061076 0.508808 0.000000 0.000000 0.000000 
-3215.322754 985.324768 1108.854980 -14.189423 5.927362 -1.527047 1.186840 0.667318 0.720564 1.115655 -0.134365 -0.140658 1.127815 0.250582 0.033504 0.133509 -8.593822 2.511562 0.000000 0.000000 0.000000 3.689043 6.676620 -2.807582 0.130392 7.326622 -2.270846 1.418125 -9.663751 9.563899 0.000000 0.000000 0.000000 0.987277 2.037702 -2.873385 0.981521 2.596274 0.799652 -0.568260 -8.161757 -1.832771 0.000000 0.000000 0.000000 -0.768895 -2.866460 -0.467102 -0.789838 -1.664638 0.482552 -0.723616 -3.336692 0.686213 0.000000 0.000000 0.000000 0.785006 -4.922462 4.279508 0.914914 0.168157 0.223353 0.885022 -1.071763 0.471230 0.000000 0.000000 0.000000 
-3206.662354 984.938782 1108.145996 -13.570949 7.431390 -1.837096 1.133277 0.086627 0.640383 1.090344 -0.017070 -0.120581 1.103232 0.082088 0.044893 0.170491 -9.666082 2.723036 0.000000 0.000000 0.000000 3.912392 7.457728 -3.143263 0.215163 8.064678 -2.775153 1.585526 -9.914522 11.540581 0.000000 0.000000 0.000000 1.394795 3.010120 -2.695790 1.290516 3.551761 0.952569 -0.818568 -10.142866 -3.744530 0.000000 0.000000 0.000000 -1.077685 -3.656935 -0.260234 -1.095819 -2.193965 0.654960 -1.057981 -3.449353 0.573287 0.000000 0.000000 0.000000 0.850365 -5.755619 4.628171 1.002005 -0.600316 0.161836 0.967648 -1.286932 0.526340 0.000000 0.000000 0.000000 
